<svg width="47" height="44" viewBox="0 0 47 44" fill="none" xmlns="http://www.w3.org/2000/svg">
<g clip-path="url(#clip0_202_429)">
<path d="M40.7204 17.3571C41.4633 17.3571 42.0975 17.6396 42.6232 18.2047C43.1488 18.7697 43.4116 19.4515 43.4116 20.25C43.4116 21.0485 43.1488 21.7303 42.6232 22.2953C42.0975 22.8604 41.4633 23.1429 40.7204 23.1429H40.405L37.9871 38.1044C37.875 38.7974 37.5666 39.37 37.062 39.822C36.5574 40.274 35.9827 40.5 35.338 40.5H8.42572C7.78095 40.5 7.20626 40.274 6.70166 39.822C6.19705 39.37 5.88868 38.7974 5.77655 38.1044L3.35865 23.1429H3.04327C2.30038 23.1429 1.66612 22.8604 1.1405 22.2953C0.614866 21.7303 0.352051 21.0485 0.352051 20.25C0.352051 19.4515 0.614866 18.7697 1.1405 18.2047C1.66612 17.6396 2.30038 17.3571 3.04327 17.3571H40.7204ZM10.5493 35.4375C10.9137 35.4074 11.2186 35.2379 11.4639 34.929C11.7092 34.6201 11.8178 34.2698 11.7898 33.8781L11.1169 24.4763C11.0889 24.0845 10.9312 23.7568 10.6439 23.4932C10.3565 23.2295 10.0306 23.1127 9.66621 23.1429C9.30177 23.173 8.99691 23.3425 8.75161 23.6514C8.50632 23.9602 8.39769 24.3105 8.42572 24.7023L9.09853 34.1041C9.12656 34.4807 9.27023 34.7972 9.52954 35.0533C9.78885 35.3094 10.0937 35.4375 10.4441 35.4375H10.5493ZM19.1906 33.9911V24.5893C19.1906 24.1975 19.0575 23.8585 18.7911 23.5723C18.5248 23.286 18.2094 23.1429 17.845 23.1429C17.4806 23.1429 17.1652 23.286 16.8989 23.5723C16.6326 23.8585 16.4994 24.1975 16.4994 24.5893V33.9911C16.4994 34.3828 16.6326 34.7218 16.8989 35.0081C17.1652 35.2944 17.4806 35.4375 17.845 35.4375C18.2094 35.4375 18.5248 35.2944 18.7911 35.0081C19.0575 34.7218 19.1906 34.3828 19.1906 33.9911ZM27.2643 33.9911V24.5893C27.2643 24.1975 27.1311 23.8585 26.8648 23.5723C26.5985 23.286 26.2831 23.1429 25.9187 23.1429C25.5542 23.1429 25.2389 23.286 24.9725 23.5723C24.7062 23.8585 24.5731 24.1975 24.5731 24.5893V33.9911C24.5731 34.3828 24.7062 34.7218 24.9725 35.0081C25.2389 35.2944 25.5542 35.4375 25.9187 35.4375C26.2831 35.4375 26.5985 35.2944 26.8648 35.0081C27.1311 34.7218 27.2643 34.3828 27.2643 33.9911ZM34.6651 34.1041L35.338 24.7023C35.366 24.3105 35.2574 23.9602 35.0121 23.6514C34.7668 23.3425 34.4619 23.173 34.0975 23.1429C33.733 23.1127 33.4071 23.2295 33.1198 23.4932C32.8325 23.7568 32.6748 24.0845 32.6467 24.4763L31.9739 33.8781C31.9459 34.2698 32.0545 34.6201 32.2998 34.929C32.5451 35.2379 32.85 35.4074 33.2144 35.4375H33.3195C33.67 35.4375 33.9748 35.3094 34.2341 35.0533C34.4934 34.7972 34.6371 34.4807 34.6651 34.1041ZM10.36 6.59933L8.4047 15.9107H5.62937L7.75291 5.94392C8.01923 4.61802 8.64298 3.53697 9.62416 2.70075C10.6053 1.86454 11.7267 1.44643 12.9882 1.44643H16.4994C16.4994 1.05469 16.6326 0.715681 16.8989 0.429408C17.1652 0.143136 17.4806 0 17.845 0H25.9187C26.2831 0 26.5985 0.143136 26.8648 0.429408C27.1311 0.715681 27.2643 1.05469 27.2643 1.44643H30.7755C32.037 1.44643 33.1583 1.86454 34.1395 2.70075C35.1207 3.53697 35.7444 4.61802 36.0108 5.94392L38.1343 15.9107H35.359L33.4036 6.59933C33.2495 5.93638 32.9306 5.39397 32.447 4.9721C31.9634 4.55022 31.4062 4.33929 30.7755 4.33929H27.2643C27.2643 4.73103 27.1311 5.07003 26.8648 5.35631C26.5985 5.64258 26.2831 5.78571 25.9187 5.78571H17.845C17.4806 5.78571 17.1652 5.64258 16.8989 5.35631C16.6326 5.07003 16.4994 4.73103 16.4994 4.33929H12.9882C12.3574 4.33929 11.8003 4.55022 11.3167 4.9721C10.8331 5.39397 10.5142 5.93638 10.36 6.59933Z" fill="white"/>
</g>
<defs>
<clipPath id="clip0_202_429">
<rect width="46.6479" height="43.875" fill="white" transform="translate(0.352051)"/>
</clipPath>
</defs>
</svg>
