<svg width="52" height="48" viewBox="0 0 52 48" fill="none" xmlns="http://www.w3.org/2000/svg">
<g clip-path="url(#clip0_202_434)">
<mask id="mask0_202_434" style="mask-type:alpha" maskUnits="userSpaceOnUse" x="2" y="2" width="47" height="44">
<path d="M46.7807 28H29.7695V44H46.7807V28ZM13.8215 4L23.3903 20H4.25269L13.8215 4ZM38.2751 20C40.5309 20 42.6943 19.1571 44.2894 17.6569C45.8845 16.1566 46.7807 14.1217 46.7807 12C46.7807 9.87827 45.8845 7.84344 44.2894 6.34315C42.6943 4.84285 40.5309 4 38.2751 4C36.0192 4 33.8558 4.84285 32.2607 6.34315C30.6656 7.84344 29.7695 9.87827 29.7695 12C29.7695 14.1217 30.6656 16.1566 32.2607 17.6569C33.8558 19.1571 36.0192 20 38.2751 20Z" fill="white" stroke="white" stroke-width="4" stroke-linejoin="round"/>
<path d="M4.25269 28L21.2639 44M21.2639 28L4.25269 44" stroke="white" stroke-width="4" stroke-linecap="round" stroke-linejoin="round"/>
</mask>
<g mask="url(#mask0_202_434)">
<path d="M0 0H51.0336V48H0V0Z" fill="white"/>
</g>
<g clip-path="url(#clip1_202_434)">
<mask id="mask1_202_434" style="mask-type:alpha" maskUnits="userSpaceOnUse" x="2" y="2" width="47" height="44">
<path d="M46.7809 28H29.7697V44H46.7809V28ZM13.8217 4L23.3905 20H4.25293L13.8217 4ZM38.2753 20C40.5311 20 42.6946 19.1571 44.2897 17.6569C45.8848 16.1566 46.7809 14.1217 46.7809 12C46.7809 9.87827 45.8848 7.84344 44.2897 6.34315C42.6946 4.84285 40.5311 4 38.2753 4C36.0195 4 33.8561 4.84285 32.2609 6.34315C30.6658 7.84344 29.7697 9.87827 29.7697 12C29.7697 14.1217 30.6658 16.1566 32.2609 17.6569C33.8561 19.1571 36.0195 20 38.2753 20Z" fill="white" stroke="white" stroke-width="4" stroke-linejoin="round"/>
</mask>
<g mask="url(#mask1_202_434)">
<path d="M0 0H51.0336V48H0V0Z" fill="#0897AB"/>
</g>
</g>
</g>
<defs>
<clipPath id="clip0_202_434">
<rect width="51.0336" height="48" fill="white"/>
</clipPath>
<clipPath id="clip1_202_434">
<rect width="24.4536" height="48" fill="white" transform="translate(26.5801)"/>
</clipPath>
</defs>
</svg>
